<svg width="368" height="394" viewBox="0 0 368 394" fill="none" xmlns="http://www.w3.org/2000/svg">
<path fill-rule="evenodd" clip-rule="evenodd" d="M183.936 157.2V393.584C183.936 393.584 54.448 338.176 0.191986 315.024L0.0319824 314.752V78.512L0.191986 78.816L183.776 157.376L183.936 157.2Z" fill="#FCD062"/>
<path fill-rule="evenodd" clip-rule="evenodd" d="M367.68 78.496L367.52 78.784L183.936 157.36V393.616L367.536 315.024L367.696 314.736V78.496H367.68Z" fill="#F8AA3A"/>
<path fill-rule="evenodd" clip-rule="evenodd" d="M180.864 0L0 78.56V78.752L183.952 157.68L367.984 78.576L185.84 0.0159988H180.88L180.864 0Z" fill="#F8B84E"/>
<path fill-rule="evenodd" clip-rule="evenodd" d="M240.688 23.696L239.568 24.112L56.848 103.12V214.08L89.28 198.08L121.28 246.08L121.248 130.784L304 50.944L240.688 23.696Z" fill="#E9EDED"/>
</svg>
